<svg width="70" height="70" viewBox="0 0 70 70" fill="none" xmlns="http://www.w3.org/2000/svg">
<path d="M42.7665 30.9932V69M42.7665 30.9932H64.8579M42.7665 30.9932V14.6049M27.2335 30.9932V69M27.2335 30.9932H5.48731M27.2335 30.9932V14.6049M42.7665 69H64.8579V30.9932M42.7665 69H27.2335M64.8579 30.9932H69V14.6049H48.9797M27.2335 69H5.48731V30.9932M5.48731 30.9932H1V14.6049H20.3299M27.2335 14.6049H35M27.2335 14.6049H20.3299M42.7665 14.6049H35M42.7665 14.6049H48.9797M35 14.6049C36.5533 9.9558 41.5239 0.727234 48.9797 1.00618C58.2995 1.35487 57.6091 14.6049 48.9797 14.6049M35 14.6049C33.6768 10.072 28.8904 1.00618 20.3299 1.00618C9.62944 1.00618 12.3909 14.6049 20.3299 14.6049" stroke="#45486A" stroke-width="2"/>
</svg>
